DataType=double
version=3
OpenSimVersion=4.5.2-2025-05-03-6a4c6ec41
endheader
time	q	/jointset/head_joint/q/speed
0	0	0
0.01	0	0.2315936255243859
0.02	0.002315936255243859	0.4560503723371236
0.03	0.006876439978615095	0.6732515658953619
0.04	0.01360895563756872	0.8830938465268479
0.05	0.0224398941028372	1.085487990090916
0.06	0.03329477400374635	1.280357192733689
0.07000000000000001	0.04609834593108324	1.467639209456124
0.08	0.06077473802564448	1.64728503020069
0.09	0.07724758832765137	1.819258200401078
0.09999999999999999	0.09544017033166213	1.661732377616034
0.11	0.1120574941078225	1.365036063601264
0.12	0.1257078547438351	1.446689579917845
0.13	0.1401747505430135	1.615425286884583
0.14	0.1563290034118594	1.313684313005009
0.15	0.1694658465419095	1.01891305081776
0.16	0.1796549770500871	0.7855254940832721
0.17	0.1875102319909198	0.7360326946827862
0.18	0.1948705589377477	0.7522566926926618
0.19	0.2023931258646743	0.7903681802501924
0.2	0.2102968076671762	0.9683103872880423
0.21	0.2199799115400566	0.6764545605287191
0.2200000000000001	0.2267444571453438	0.4959289756232966
0.2300000000000001	0.2317037469015768	0.6794778531902818
0.2400000000000001	0.2384985254334796	0.8566675976506515
0.2500000000000001	0.2470652014099861	0.564246287063112
0.2600000000000001	0.2527076642806173	0.7428110908610255
0.2700000000000001	0.2601357751892275	0.9150775233927628
0.2800000000000001	0.2692865504231552	1.080987487245532
0.2900000000000001	0.2800964252956105	1.24049686455909
0.3000000000000001	0.2925013939412014	0.9303869807106313
0.3100000000000001	0.3018052637483078	0.6280988571334795
0.3200000000000001	0.3080862523196426	0.5537373861670375
0.3300000000000001	0.313623626181313	0.2608895433212973
0.3400000000000001	0.3162325216145259	0.439485450476339
0.3500000000000001	0.3206273761192893	0.1490300478134131
0.3600000000000002	0.3221176765974235	-0.1330830571464927
0.3700000000000002	0.3207868460259585	0.05647965770483601
0.3800000000000002	0.3213516426030069	0.2403857636487799
0.3900000000000002	0.3237555002394947	0.4185455600355948
0.4000000000000002	0.3279409558398507	0.5908822425465133
0.4100000000000002	0.3338497782653158	0.2941423420803124
0.4200000000000002	0.3367912016861189	0.04400772899903865
0.4300000000000002	0.3372312789761093	0.2260893216852827
0.4400000000000002	0.3394921721929622	0.4025002320824262
0.4500000000000002	0.3435171745137864	0.1099760754690678
0.4600000000000002	0.3446169352684771	-0.1416127753794947
0.4700000000000003	0.3432008075146822	-0.1800542891665093
0.4800000000000003	0.3414002646230171	-0.1420351495606664
0.4900000000000003	0.3399799131274104	-0.07686761880473157
0.5000000000000002	0.3392112369393631	-0.003487090568409124
0.5100000000000002	0.339176366033679	0.07121953856448941
0.5200000000000002	0.3398885614193239	0.1451472451445032
0.5300000000000002	0.3413400338707689	0.21727771543292
0.5400000000000003	0.3435128110250981	0.2871453540364804
0.5500000000000003	0.346384264565463	0.3545731826631503
0.5600000000000003	0.3499299963920944	0.4195066089416691
0.5700000000000003	0.3541250624815112	0.1250263231236667
0.5800000000000003	0.3553753257127478	-0.1609532137009477
0.5900000000000003	0.3537657935757383	-0.438289362601471
0.6000000000000003	0.3493828999497236	-0.7068579011304909
0.6100000000000003	0.3423143209384187	-0.9665491695626514
0.6200000000000003	0.3326488292427922	-1.217267928169333
0.6300000000000003	0.3204761499610988	-0.995742834993569
0.6400000000000003	0.3105187216111631	-0.8278256914522959
0.6500000000000004	0.3022404646966402	-0.6152424714769213
0.6600000000000004	0.2960880399818709	-0.4080606996397781
0.6700000000000004	0.2920074329854732	-0.6695951298563254
0.6800000000000004	0.2853114816869099	-0.4593144390440371
0.6900000000000004	0.2807183372964695	-0.7177645807644069
0.7000000000000004	0.2735406914888254	-0.8976340993697859
0.7100000000000004	0.2645643504951276	-0.9079655893021851
0.7200000000000004	0.2554846946021057	-0.8576439112977321
0.7300000000000004	0.2469082554891284	-0.6364425390032873
0.7400000000000004	0.2405438300990955	-0.4208474572799382
0.7500000000000004	0.2363353555262961	-0.6741844483827658
0.7600000000000005	0.2295935110424684	-0.4559321774348064
0.7700000000000005	0.2250341892681204	-0.7066358061575677
0.7800000000000005	0.2179678312065447	-0.8911164569097985
0.7900000000000005	0.2090566666374467	-1.126757338881459
0.8000000000000005	0.1977890932486321	-0.8906795544148781
0.8100000000000005	0.1888822977044833	-0.6602677343578488
0.8200000000000005	0.1822796203609048	-0.4860895599766426
0.8300000000000005	0.1774187247611384	-0.3673517080437451
0.8400000000000005	0.173745207680701	-0.6133409009012469
0.8500000000000005	0.1676117986716885	-0.851223118097937
0.8600000000000005	0.1590995674907091	-1.080892572876466
0.8700000000000006	0.1482906417619445	-0.8390723585345393
0.8800000000000006	0.1398999181765991	-0.7217745204280352
0.8900000000000006	0.1326821729723187	-0.951441737757822
0.9000000000000006	0.1231677555947405	-1.172990003589264
0.9100000000000006	0.1114378555588478	-1.38633474587739
0.9200000000000006	0.0975745081000739	-1.591406536556658
0.9300000000000006	0.0816604427345073	-1.788148866841504
0.9400000000000006	0.06377895406609224	-1.513330453355826
0.9500000000000006	0.04864564953253397	-1.332398709122252
0.9600000000000006	0.03532166244131144	-1.066824859359879
0.9700000000000006	0.02465341384771264	-0.8074959141893068
0.9800000000000006	0.01657845470581957	-0.5829307498156679
0.9900000000000007	0.01074914720766288	-0.4618610559197381
1.000000000000001	0.006130536648465498	-0.6807854633397293
1.010000000000001	-0.0006773179849318012	-0.8922909525633071
1.020000000000001	-0.009600227510564881	-1.096285642081848
1.030000000000001	-0.02056308393138337	-1.292692866013021
1.040000000000001	-0.03349001259151359	-1.481449309764271
1.050000000000001	-0.04830450568915632	-1.662505124197369
1.060000000000001	-0.06492955693113002	-1.8358236861595
1.070000000000001	-0.08328779379272504	-1.538194542100769
1.080000000000001	-0.09866973921373273	-1.247068929951511
1.090000000000001	-0.1111404285132479	-0.9626837845669143
1.100000000000001	-0.120767266358917	-0.7192643317515004
1.110000000000001	-0.127959909676432	-0.6002130157960431
1.120000000000001	-0.1339620398343925	-0.5266593187950458
1.130000000000001	-0.139228633022343	-0.7225578842582645
1.140000000000001	-0.1464542118649256	-0.4484723262075747
1.150000000000001	-0.1509389351270014	-0.6449775324851365
1.160000000000001	-0.1573887104518527	-0.8347818441534007
1.170000000000001	-0.1657365288933867	-1.017807477135042
1.180000000000001	-0.1759146036647372	-1.193991478090245
1.190000000000001	-0.1878545184456396	-1.363283810640536
1.200000000000001	-0.201487356552045	-1.525647357021102
1.210000000000001	-0.216743830122256	-1.217870720173953
1.220000000000001	-0.2289225373239956	-0.9174029607069658
1.230000000000001	-0.2380965669310653	-0.6244651563750856
1.240000000000001	-0.2443412184948161	-0.8024426059909542
1.250000000000001	-0.2523656445547257	-0.5108657062350883
1.260000000000001	-0.2574743016170765	-0.2271400556478913
1.270000000000001	-0.2597457021735554	-0.4146259133986869
1.280000000000001	-0.2638919613075423	-0.5960152047490508
1.290000000000001	-0.2698521133550328	-0.7712303223734038
1.300000000000001	-0.2775644165787668	-0.9402073759768057
1.310000000000001	-0.2869664903385349	-1.102894433492872
1.320000000000001	-0.2979954346734637	-1.25925157363473
1.330000000000001	-0.310587950409811	-0.9460636197674064
1.340000000000001	-0.320048586607485	-0.6407755349693305
1.350000000000001	-0.3264563419571783	-0.3435861722703809
1.360000000000001	-0.3298922036798821	-0.05467094801271627
1.370000000000001	-0.3304389131600093	0.2258135726562389
1.380000000000001	-0.3281807774334469	0.4977286905995006
1.390000000000001	-0.3232034905274518	0.2977645285501705
1.400000000000001	-0.3202258452419501	0.1032744633689027
1.410000000000001	-0.3191931006082611	-0.08563299103833691
1.420000000000001	-0.3200494305186445	-0.2688610756825387
1.430000000000001	-0.3227380412754699	-0.4463234003577453
1.440000000000001	-0.3272012752790474	-0.6179444730984597
1.450000000000001	-0.3333807200100319	-0.3204722917897203
1.460000000000001	-0.3365854429279291	-0.2744952808457058
1.470000000000001	-0.3393303957363862	-0.4321272486452564
1.480000000000001	-0.3436516682228388	-0.138711960159683
1.490000000000001	-0.3450387878244356	0.1462551302878893
1.500000000000001	-0.3435762365215567	0.2754185833275891
1.510000000000001	-0.3408220506882808	0.3106828237699474
1.520000000000001	-0.3377152224505813	0.3118114581876406
1.530000000000001	-0.3345971078687049	0.118889536069649
1.540000000000001	-0.3334082125080085	-0.06851629807147469
1.550000000000001	-0.3340933754887232	-0.2503097868336789
1.560000000000001	-0.33659647335706	-0.4264059227407099
1.570000000000001	-0.3408605325844671	-0.5967301963057997
1.580000000000001	-0.3468278345475251	-0.2980316511612133
1.590000000000001	-0.3498081510591372	-0.007718618317653636
1.600000000000001	-0.3498853372423137	0.2740549209182364
1.610000000000001	-0.3471447880331314	0.5471545291328623
1.620000000000001	-0.3416732427418027	0.811461607826784
1.630000000000001	-0.3335586266635349	1.06687197817605
1.640000000000001	-0.3228899068817744	1.313294738463416
1.650000000000001	-0.3097569594971402	1.087463620029291
1.660000000000001	-0.2988823232968473	0.8667721079240293
1.670000000000001	-0.290214602217607	0.6513707564321378
1.680000000000001	-0.2837008946532856	0.4413995899987206
1.690000000000001	-0.2792868987532984	0.7001767558498784
1.700000000000001	-0.2722851311947996	0.8890360855583064
1.710000000000001	-0.2633947703392165	0.9389549430303956
1.720000000000001	-0.2540052209089125	0.9380221800092937
1.730000000000001	-0.2446249991088196	0.7141350219047755
1.740000000000001	-0.2374836488897718	0.4958228467245054
1.750000000000001	-0.2325254204225267	0.2832289504317048
1.760000000000001	-0.2296931309182097	0.07648429890415107
1.770000000000001	-0.2289282879291682	0.338897176921506
1.780000000000001	-0.2255393161599531	0.5931154694942198
1.790000000000001	-0.2196081614650109	0.8390175684821247
